<svg xmlns="http://www.w3.org/2000/svg" viewBox="0 0 24 24" width="24" height="24"
     fill="currentColor" stroke="none"
     role="img" aria-label="ResearchGate">
  <title>ResearchGate</title>
  <!-- ResearchGate "RG" mark -->
  <path d="M19.586 0H4.414C1.977 0 0 1.977 0 4.414v15.172C0 22.023 1.977 24 4.414 24h15.172C22.023 24 24 22.023 24 19.586V4.414C24 1.977 22.023 0 19.586 0zM9.496 16.920H7.03V7.086h3.481c1.18 0 2.07.277 2.67.832.6.555.9 1.338.9 2.35 0 .716-.168 1.323-.503 1.82-.335.498-.808.855-1.42 1.072l2.31 3.76h-2.61l-1.96-3.41h-.402v3.41zm0-5.12h.9c.507 0 .882-.112 1.124-.336.243-.224.364-.564.364-1.02 0-.44-.12-.768-.36-.984-.24-.216-.618-.324-1.134-.324h-.894v2.664zM17.87 14.27v-.828h-2.034v-1.61h3.857v3.148c-.37.477-.862.853-1.477 1.128-.615.275-1.305.412-2.07.412-1.075 0-1.93-.317-2.564-.952-.634-.634-.951-1.493-.951-2.576 0-1.1.322-1.966.966-2.598.644-.632 1.517-.948 2.618-.948.75 0 1.384.152 1.901.456.517.304.893.742 1.128 1.314l-1.68.636c-.12-.31-.308-.548-.562-.714a1.56 1.56 0 0 0-.858-.249c-.538 0-.963.18-1.276.54-.313.36-.47.868-.47 1.524 0 .632.16 1.126.48 1.482.32.356.762.534 1.326.534.27 0 .516-.04.738-.12.222-.08.41-.192.564-.336l-.135-.048z"/>
</svg>
