<svg xmlns="http://www.w3.org/2000/svg" viewBox="0 0 24 24" width="24" height="24"
     fill="none" stroke="currentColor" stroke-width="1.8"
     stroke-linecap="round" stroke-linejoin="round"
     role="img" aria-label="Neuroscience">
  <title>Neuroscience</title>
  <path d="M9.5 2A2.5 2.5 0 0 0 7 4.5a2.5 2.5 0 0 0-2.5 2.5 2.5 2.5 0 0 0-2.5
       2.5 2.5 2.5 0 0 0 2.5 2.5v1a2.5 2.5 0 0 0 2.5 2.5 2.5 2.5 0 0 0 2.5
       2.5h1a2.5 2.5 0 0 0 2.5-2.5 2.5 2.5 0 0 0 2.5-2.5v-1a2.5 2.5 0 0 0
       2.5-2.5 2.5 2.5 0 0 0-2.5-2.5A2.5 2.5 0 0 0 17 4.5 2.5 2.5 0 0 0 14.5 2h-5z"/>
       <line x1="12" y1="7" x2="12" y2="17"/>
       <line x1="9" y1="10" x2="15" y2="10"/>
       <line x1="9" y1="14" x2="15" y2="14"/>
</svg>