<?xml version="1.0" encoding="UTF-8" standalone="no"?>
<!DOCTYPE svg PUBLIC "-//W3C//DTD SVG 1.1//EN" "http://www.w3.org/Graphics/SVG/1.1/DTD/svg11.dtd">
<svg width="100%" height="100%" viewBox="0 0 680 420" version="1.1" xmlns="http://www.w3.org/2000/svg" xmlns:xlink="http://www.w3.org/1999/xlink" xml:space="preserve" xmlns:serif="http://www.serif.com/" style="fill-rule:evenodd;clip-rule:evenodd;">
    <g transform="matrix(1,0,0,1,340,18)">
        <text x="-161.422px" y="0px" style="font-family:'ArialMT', 'Arial', sans-serif;font-size:16px;">Dual-Channel Recording and <tspan x="48.492px 59.18px " y="0px 0px ">ΔF</tspan>/F Correction</text>
    </g>
    <g transform="matrix(1,0,0,1,0,12)">
        <path d="M640,33C640,31.344 638.656,30 637,30L71,30C69.344,30 68,31.344 68,33L68,107C68,108.656 69.344,110 71,110L637,110C638.656,110 640,108.656 640,107L640,33Z" style="fill:rgb(222,220,209);fill-opacity:0.03;stroke:rgb(222,220,209);stroke-opacity:0.22;stroke-width:0.5px;"/>
    </g>
    <g transform="matrix(1,0,0,1,0,12)">
        <rect x="136" y="30" width="36" height="80" style="fill:rgb(100,160,240);fill-opacity:0.1;"/>
    </g>
    <g transform="matrix(1,0,0,1,0,12)">
        <rect x="298" y="30" width="36" height="80" style="fill:rgb(100,160,240);fill-opacity:0.1;"/>
    </g>
    <g transform="matrix(1,0,0,1,0,12)">
        <rect x="479" y="30" width="36" height="80" style="fill:rgb(100,160,240);fill-opacity:0.1;"/>
    </g>
    <g transform="matrix(1,0,0,1,0,12)">
        <rect x="396" y="30" width="30" height="80" style="fill:rgb(226,75,74);fill-opacity:0.1;stroke:rgb(226,75,74);stroke-opacity:0.4;stroke-width:0.5px;"/>
    </g>
    <g transform="matrix(1,0,0,1,0,12)">
        <path d="M68,70L640,70" style="fill:none;fill-rule:nonzero;stroke:rgb(222,220,209);stroke-opacity:0.14;stroke-width:0.8px;stroke-dasharray:3,3;"/>
    </g>
    <g transform="matrix(1,0,0,1,0,12)">
        <path d="M68,71L136,71C140,68 144,56 148,44C152,38 156,38 160,46C164,56 168,68 172,71L298,71C302,68 306,56 310,44C314,38 318,38 322,46C326,56 330,68 334,71L396,71C399,55 403,38 411,36C416,36 419,55 423,71L479,71C483,68 487,56 491,44C495,38 499,38 503,46C507,56 511,68 515,71C560,72 600,73 640,74" style="fill:none;fill-rule:nonzero;stroke:rgb(100,160,240);stroke-width:2px;"/>
    </g>
    <g transform="matrix(1,0,0,1,74,57)">
        <text x="0px" y="0px" style="font-family:'ArialMT', 'Arial', sans-serif;font-size:10.5px;fill:rgb(100,160,240);">F</text>
        <text x="6.414px" y="0px" style="font-family:'LucidaGrande', 'Lucida Grande', sans-serif;font-weight:500;font-size:10.5px;fill:rgb(100,160,240);">₄₇₀</text>
    </g>
    <g transform="matrix(1,0,0,1,74,69)">
        <text x="0px" y="0px" style="font-family:'ArialMT', 'Arial', sans-serif;font-size:9px;fill:rgb(156,154,146);">470 nm raw</text>
    </g>
    <g transform="matrix(1,0,0,1,634,90)">
        <text x="-25.031px" y="0px" style="font-family:'ArialMT', 'Arial', sans-serif;font-size:8.5px;fill:rgb(156,154,146);">drift →</text>
    </g>
    <g transform="matrix(1,0,0,1,0,12)">
        <path d="M640,135C640,133.344 638.656,132 637,132L71,132C69.344,132 68,133.344 68,135L68,209C68,210.656 69.344,212 71,212L637,212C638.656,212 640,210.656 640,209L640,135Z" style="fill:rgb(222,220,209);fill-opacity:0.03;stroke:rgb(222,220,209);stroke-opacity:0.22;stroke-width:0.5px;"/>
    </g>
    <g transform="matrix(1,0,0,1,0,12)">
        <rect x="396" y="132" width="30" height="80" style="fill:rgb(226,75,74);fill-opacity:0.1;stroke:rgb(226,75,74);stroke-opacity:0.4;stroke-width:0.5px;"/>
    </g>
    <g transform="matrix(1,0,0,1,0,12)">
        <path d="M68,172L640,172" style="fill:none;fill-rule:nonzero;stroke:rgb(222,220,209);stroke-opacity:0.14;stroke-width:0.8px;stroke-dasharray:3,3;"/>
    </g>
    <g transform="matrix(1,0,0,1,0,12)">
        <path d="M68,173C180,173 350,174 396,174C399,158 403,140 411,138C416,138 419,158 423,174C460,175 560,176 640,177" style="fill:none;fill-rule:nonzero;stroke:rgb(160,120,220);stroke-width:2px;"/>
    </g>
    <g transform="matrix(1,0,0,1,74,159)">
        <text x="0px" y="0px" style="font-family:'ArialMT', 'Arial', sans-serif;font-size:10.5px;fill:rgb(160,120,220);">F</text>
        <text x="6.414px" y="0px" style="font-family:'LucidaGrande', 'Lucida Grande', sans-serif;font-weight:500;font-size:10.5px;fill:rgb(160,120,220);">₄₀₅</text>
    </g>
    <g transform="matrix(1,0,0,1,74,171)">
        <text x="0px" y="0px" style="font-family:'ArialMT', 'Arial', sans-serif;font-size:9px;fill:rgb(156,154,146);">405 nm reference</text>
    </g>
    <g transform="matrix(1,0,0,1,634,192)">
        <text x="-25.031px" y="0px" style="font-family:'ArialMT', 'Arial', sans-serif;font-size:8.5px;fill:rgb(156,154,146);">drift →</text>
    </g>
    <g transform="matrix(1,0,0,1,290,160)">
        <text x="-37.329px" y="0px" style="font-family:'ArialMT', 'Arial', sans-serif;font-size:8.5px;fill:rgb(160,120,220);">no neural transients</text>
    </g>
    <g transform="matrix(1,0,0,1,0,12)">
        <path d="M290,150L290,170" style="fill:none;fill-rule:nonzero;stroke:rgb(222,220,209);stroke-opacity:0.14;stroke-width:0.7px;stroke-dasharray:2,2;"/>
    </g>
    <g transform="matrix(1,0,0,1,354,239)">
        <text x="-104.922px" y="0px" style="font-family:'ArialMT', 'Arial', sans-serif;font-size:9.5px;fill:rgb(156,154,146);">regression + subtraction → <tspan x="10.984px 17.33px " y="0px 0px ">ΔF</tspan>/F = (F</text>
        <text x="51.369px" y="0px" style="font-family:'LucidaGrande', 'Lucida Grande', sans-serif;font-weight:500;font-size:9.5px;fill:rgb(156,154,146);">₄₇₀</text>
        <text x="66.031px" y="0px" style="font-family:'ArialMT', 'Arial', sans-serif;font-size:9.5px;fill:rgb(156,154,146);">− F</text>
        <text x="80.022px" y="0px" style="font-family:'LucidaGrande', 'Lucida Grande', sans-serif;font-weight:500;font-size:9.5px;fill:rgb(156,154,146);">₀</text>
        <text x="84.03px" y="0px" style="font-family:'ArialMT', 'Arial', sans-serif;font-size:9.5px;fill:rgb(156,154,146);">) / F</text>
        <text x="100.914px" y="0px" style="font-family:'LucidaGrande', 'Lucida Grande', sans-serif;font-weight:500;font-size:9.5px;fill:rgb(156,154,146);">₀</text>
    </g>
    <g transform="matrix(1,0,0,1,0,12)">
        <path d="M354,215L354,230" style="fill:none;fill-rule:nonzero;stroke:rgb(222,220,209);stroke-opacity:0.14;stroke-width:1px;"/>
    </g>
    <g transform="matrix(1,0,0,1,0,12)">
        <path d="M350,228L354,234L358,228L350,228Z" style="fill:rgb(222,220,209);fill-opacity:0.14;fill-rule:nonzero;"/>
    </g>
    <g transform="matrix(1,0,0,1,0,12)">
        <path d="M640,239C640,237.344 638.656,236 637,236L71,236C69.344,236 68,237.344 68,239L68,313C68,314.656 69.344,316 71,316L637,316C638.656,316 640,314.656 640,313L640,239Z" style="fill:rgb(222,220,209);fill-opacity:0.03;stroke:rgb(222,220,209);stroke-opacity:0.22;stroke-width:0.5px;"/>
    </g>
    <g transform="matrix(1,0,0,1,0,12)">
        <rect x="136" y="236" width="36" height="80" style="fill:rgb(100,160,240);fill-opacity:0.1;"/>
    </g>
    <g transform="matrix(1,0,0,1,0,12)">
        <rect x="298" y="236" width="36" height="80" style="fill:rgb(100,160,240);fill-opacity:0.1;"/>
    </g>
    <g transform="matrix(1,0,0,1,0,12)">
        <rect x="479" y="236" width="36" height="80" style="fill:rgb(100,160,240);fill-opacity:0.1;"/>
    </g>
    <g transform="matrix(1,0,0,1,0,12)">
        <path d="M68,276L640,276" style="fill:none;fill-rule:nonzero;stroke:rgb(222,220,209);stroke-opacity:0.14;stroke-width:0.8px;stroke-dasharray:3,3;"/>
    </g>
    <g transform="matrix(1,0,0,1,0,12)">
        <path d="M68,276L136,276C140,273 144,262 148,250C152,244 156,244 160,251C164,262 168,274 172,276L298,276C302,273 306,262 310,250C314,244 318,244 322,251C326,262 330,274 334,276L479,276C483,273 487,262 491,250C495,244 499,244 503,251C507,262 511,274 515,276L640,276" style="fill:none;fill-rule:nonzero;stroke:rgb(29,158,117);stroke-width:2.2px;"/>
    </g>
    <g transform="matrix(1,0,0,1,74,263)">
        <text x="0px" y="0px" style="font-family:'ArialMT', 'Arial', sans-serif;font-size:10.5px;fill:rgb(29,158,117);">ΔF/F</text>
    </g>
    <g transform="matrix(1,0,0,1,74,275)">
        <text x="0px" y="0px" style="font-family:'ArialMT', 'Arial', sans-serif;font-size:9px;fill:rgb(156,154,146);">corrected signal</text>
    </g>
    <g transform="matrix(1,0,0,1,0,12)">
        <path d="M68,318L642,318" style="fill:none;fill-rule:nonzero;stroke:rgb(222,220,209);stroke-opacity:0.3;stroke-width:1.2px;"/>
    </g>
    <g transform="matrix(1,0,0,1,0,12)">
        <path d="M638,315L644,318L638,321L638,315Z" style="fill:rgb(222,220,209);fill-opacity:0.3;fill-rule:nonzero;"/>
    </g>
    <g transform="matrix(1,0,0,1,0,12)">
        <path d="M68,318L68,324" style="fill:none;fill-rule:nonzero;stroke:rgb(222,220,209);stroke-opacity:0.3;stroke-width:1px;"/>
    </g>
    <g transform="matrix(1,0,0,1,0,12)">
        <path d="M163,318L163,324" style="fill:none;fill-rule:nonzero;stroke:rgb(222,220,209);stroke-opacity:0.3;stroke-width:1px;"/>
    </g>
    <g transform="matrix(1,0,0,1,0,12)">
        <path d="M258,318L258,324" style="fill:none;fill-rule:nonzero;stroke:rgb(222,220,209);stroke-opacity:0.3;stroke-width:1px;"/>
    </g>
    <g transform="matrix(1,0,0,1,0,12)">
        <path d="M354,318L354,324" style="fill:none;fill-rule:nonzero;stroke:rgb(222,220,209);stroke-opacity:0.3;stroke-width:1px;"/>
    </g>
    <g transform="matrix(1,0,0,1,0,12)">
        <path d="M449,318L449,324" style="fill:none;fill-rule:nonzero;stroke:rgb(222,220,209);stroke-opacity:0.3;stroke-width:1px;"/>
    </g>
    <g transform="matrix(1,0,0,1,0,12)">
        <path d="M545,318L545,324" style="fill:none;fill-rule:nonzero;stroke:rgb(222,220,209);stroke-opacity:0.3;stroke-width:1px;"/>
    </g>
    <g transform="matrix(1,0,0,1,0,12)">
        <path d="M640,318L640,324" style="fill:none;fill-rule:nonzero;stroke:rgb(222,220,209);stroke-opacity:0.3;stroke-width:1px;"/>
    </g>
    <g transform="matrix(1,0,0,1,68,346)">
        <text x="-2.503px" y="0px" style="font-family:'ArialMT', 'Arial', sans-serif;font-size:9px;fill:rgb(156,154,146);">0</text>
    </g>
    <g transform="matrix(1,0,0,1,163,346)">
        <text x="-5.005px" y="0px" style="font-family:'ArialMT', 'Arial', sans-serif;font-size:9px;fill:rgb(156,154,146);">20</text>
    </g>
    <g transform="matrix(1,0,0,1,258,346)">
        <text x="-5.005px" y="0px" style="font-family:'ArialMT', 'Arial', sans-serif;font-size:9px;fill:rgb(156,154,146);">40</text>
    </g>
    <g transform="matrix(1,0,0,1,354,346)">
        <text x="-5.005px" y="0px" style="font-family:'ArialMT', 'Arial', sans-serif;font-size:9px;fill:rgb(156,154,146);">60</text>
    </g>
    <g transform="matrix(1,0,0,1,449,346)">
        <text x="-5.005px" y="0px" style="font-family:'ArialMT', 'Arial', sans-serif;font-size:9px;fill:rgb(156,154,146);">80</text>
    </g>
    <g transform="matrix(1,0,0,1,545,346)">
        <text x="-7.508px" y="0px" style="font-family:'ArialMT', 'Arial', sans-serif;font-size:9px;fill:rgb(156,154,146);">100</text>
    </g>
    <g transform="matrix(1,0,0,1,640,346)">
        <text x="-7.508px" y="0px" style="font-family:'ArialMT', 'Arial', sans-serif;font-size:9px;fill:rgb(156,154,146);">120</text>
    </g>
    <g transform="matrix(1,0,0,1,354,362)">
        <text x="-18.145px" y="0px" style="font-family:'ArialMT', 'Arial', sans-serif;font-size:10px;fill:rgb(156,154,146);">T<tspan x="-12.407px -10.186px " y="0px 0px ">im</tspan>e (s)</text>
    </g>
    <g transform="matrix(1,0,0,1,0,12)">
        <path d="M154,28L154,20" style="fill:none;fill-rule:nonzero;stroke:rgb(222,220,209);stroke-opacity:0.14;stroke-width:0.8px;stroke-dasharray:2,2;"/>
    </g>
    <g transform="matrix(1,0,0,1,154,28)">
        <text x="-29.296px" y="0px" style="font-family:'ArialMT', 'Arial', sans-serif;font-size:8.5px;fill:rgb(100,160,240);">neural transient</text>
    </g>
    <g transform="matrix(1,0,0,1,0,12)">
        <path d="M411,28L411,20" style="fill:none;fill-rule:nonzero;stroke:rgb(222,220,209);stroke-opacity:0.14;stroke-width:0.8px;stroke-dasharray:2,2;"/>
    </g>
    <g transform="matrix(1,0,0,1,411,28)">
        <text x="-28.111px" y="0px" style="font-family:'ArialMT', 'Arial', sans-serif;font-size:8.5px;fill:rgb(226,75,74);">motion artefact</text>
    </g>
    <g transform="matrix(1,0,0,1,0,6)">
        <path d="M640,366C640,363.792 638.208,362 636,362L72,362C69.792,362 68,363.792 68,366L68,406C68,408.208 69.792,410 72,410L636,410C638.208,410 640,408.208 640,406L640,366Z" style="fill:none;stroke:rgb(222,220,209);stroke-opacity:0.2;stroke-width:0.5px;"/>
    </g>
    <g transform="matrix(1,0,0,1,0,6)">
        <path d="M90,386L116,386" style="fill:none;fill-rule:nonzero;stroke:rgb(100,160,240);stroke-width:2px;"/>
    </g>
    <g transform="matrix(1,0,0,1,122,396)">
        <text x="0px" y="0px" style="font-family:'ArialMT', 'Arial', sans-serif;font-size:10px;fill:rgb(100,160,240);">F</text>
        <text x="6.108px" y="0px" style="font-family:'LucidaGrande', 'Lucida Grande', sans-serif;font-weight:500;font-size:10px;fill:rgb(100,160,240);">₄₇₀</text>
        <text x="21.543px" y="0px" style="font-family:'ArialMT', 'Arial', sans-serif;font-size:10px;fill:rgb(100,160,240);">— 470 nm raw</text>
    </g>
    <g transform="matrix(1,0,0,1,0,6)">
        <path d="M264,386L290,386" style="fill:none;fill-rule:nonzero;stroke:rgb(160,120,220);stroke-width:2px;"/>
    </g>
    <g transform="matrix(1,0,0,1,296,396)">
        <text x="0px" y="0px" style="font-family:'ArialMT', 'Arial', sans-serif;font-size:10px;fill:rgb(160,120,220);">F</text>
        <text x="6.108px" y="0px" style="font-family:'LucidaGrande', 'Lucida Grande', sans-serif;font-weight:500;font-size:10px;fill:rgb(160,120,220);">₄₀₅</text>
        <text x="21.543px" y="0px" style="font-family:'ArialMT', 'Arial', sans-serif;font-size:10px;fill:rgb(160,120,220);">— isosbestic reference</text>
    </g>
    <g transform="matrix(1,0,0,1,0,6)">
        <path d="M470,386L496,386" style="fill:none;fill-rule:nonzero;stroke:rgb(29,158,117);stroke-width:2.2px;"/>
    </g>
    <g transform="matrix(1,0,0,1,502,396)">
        <text x="0px" y="0px" style="font-family:'ArialMT', 'Arial', sans-serif;font-size:10px;fill:rgb(29,158,117);">ΔF/F corrected</text>
    </g>
    <g transform="matrix(1,0,0,1,0,6)">
        <rect x="90" y="398" width="12" height="8" style="fill:rgb(100,160,240);fill-opacity:0.1;"/>
    </g>
    <g transform="matrix(1,0,0,1,107,413)">
        <text x="0px" y="0px" style="font-family:'ArialMT', 'Arial', sans-serif;font-size:8.5px;fill:rgb(156,154,146);">neural transient</text>
    </g>
    <g transform="matrix(1,0,0,1,0,6)">
        <rect x="264" y="398" width="12" height="8" style="fill:rgb(226,75,74);fill-opacity:0.1;stroke:rgb(226,75,74);stroke-opacity:0.4;stroke-width:0.5px;"/>
    </g>
    <g transform="matrix(1,0,0,1,281,413)">
        <text x="0px" y="0px" style="font-family:'ArialMT', 'Arial', sans-serif;font-size:8.5px;fill:rgb(156,154,146);">motion artefact (removed in <tspan x="105.354px 111.031px " y="0px 0px ">ΔF</tspan>/F)</text>
    </g>
</svg>
